<svg xmlns="http://www.w3.org/2000/svg" version="1.1" xmlns:xlink="http://www.w3.org/1999/xlink" xmlns:svgjs="http://svgjs.com/svgjs" width="1440" height="560" preserveAspectRatio="none" viewBox="0 0 1440 560"><g mask="url(&quot;#SvgjsMask1048&quot;)" fill="none"><path d="M1560 560L0 560 L0 176.52Q56.55 113.07, 120 169.63Q183 160.63, 192 223.64Q274.49 186.13, 312 268.62Q318.02 202.64, 384 208.67Q402.53 107.2, 504 125.73Q572.09 73.81, 624 141.9Q717.44 115.35, 744 208.79Q798.73 191.52, 816 246.25Q831.13 141.38, 936 156.52Q1005.84 106.36, 1056 176.19Q1133.26 133.45, 1176 210.71Q1205.46 120.18, 1296 149.64Q1325.68 107.32, 1368 137Q1425 122, 1440 179Q1507.8 126.8, 1560 194.6z" fill="rgba(229, 77, 38, 1)"></path><path d="M1536 560L0 560 L0 265.96Q87.53 281.49, 72 369.02Q62.8 287.82, 144 278.62Q163.98 226.6, 216 246.58Q260.55 219.13, 288 263.69Q334.08 189.77, 408 235.85Q503.67 211.52, 528 307.2Q590.01 297.21, 600 359.22Q604.88 244.1, 720 248.97Q750.39 207.37, 792 237.76Q822.65 196.41, 864 227.07Q971.66 214.74, 984 322.4Q989.63 256.02, 1056 261.65Q1103.99 189.64, 1176 237.63Q1279.28 220.91, 1296 324.19Q1321.98 230.17, 1416 256.15Q1489.77 209.92, 1536 283.7z" fill="rgba(229, 94, 55, 1)"></path><path d="M1560 560L0 560 L0 427.35Q29.13 336.49, 120 365.62Q174.56 300.18, 240 354.74Q294.27 337.01, 312 391.28Q360.13 367.41, 384 415.55Q414.88 326.43, 504 357.31Q587.5 320.81, 624 404.3Q699.75 360.06, 744 435.81Q794.28 414.09, 816 464.37Q887.36 415.73, 936 487.08Q967.22 398.29, 1056 429.51Q1072.84 326.35, 1176 343.18Q1218.46 313.64, 1248 356.11Q1311.48 347.59, 1320 411.07Q1414.41 385.48, 1440 479.89Q1451.1 370.99, 1560 382.09z" fill="rgba(229, 109, 71, 1)"></path><path d="M1512 560L0 560 L0 596.15Q11.97 536.12, 72 548.09Q90.66 494.75, 144 513.42Q183.37 432.78, 264 472.15Q312.5 400.65, 384 449.16Q491.69 436.85, 504 544.54Q511.74 480.28, 576 488.02Q606.77 446.79, 648 477.56Q704.54 462.1, 720 518.64Q794.41 521.05, 792 595.45Q779.7 463.15, 912 450.86Q1002.3 469.16, 984 559.45Q1059.83 515.28, 1104 591.11Q1132.66 547.78, 1176 576.44Q1149.22 477.66, 1248 450.88Q1327.76 410.64, 1368 490.41Q1438.68 489.09, 1440 559.77Q1468.84 516.61, 1512 545.44z" fill="rgba(226, 136, 104, 1)"></path></g><defs><mask id="SvgjsMask1048"><rect width="1440" height="560" fill="#ffffff"></rect></mask></defs></svg>