<svg xmlns="http://www.w3.org/2000/svg" version="1.1" xmlns:xlink="http://www.w3.org/1999/xlink" xmlns:svgjs="http://svgjs.dev/svgjs" viewBox="0 0 800 800" opacity="1" width="800" height="800"><g stroke-width="2.75" stroke="#e55e37" fill="none"><rect width="36.36363636363637" height="6.684210526315789" x="-18.181818181818183" y="-3.3421052631578947" stroke="none" fill="#e56d47" rx="3.3421052631578947" transform="rotate(45, 0, 0)"></rect><rect width="6.684210526315789" height="36.36363636363637" x="-3.3421052631578947" y="-18.181818181818183" stroke="none" fill="#e56d47" rx="3.3421052631578947" transform="rotate(45, 0, 0)"></rect><rect width="36.36363636363637" height="6.684210526315789" x="61.81818181818181" y="-3.3421052631578947" stroke="none" fill="#e55e37" rx="3.3421052631578947" transform="rotate(45, 80, 0)"></rect><rect width="6.684210526315789" height="36.36363636363637" x="76.65789473684211" y="-18.181818181818183" stroke="none" fill="#e55e37" rx="3.3421052631578947" transform="rotate(45, 80, 0)"></rect><rect width="36.36363636363637" height="6.684210526315789" x="141.8181818181818" y="-3.3421052631578947" stroke="none" fill="#e56d47" rx="3.3421052631578947" transform="rotate(45, 160, 0)"></rect><rect width="6.684210526315789" height="36.36363636363637" x="156.6578947368421" y="-18.181818181818183" stroke="none" fill="#e56d47" rx="3.3421052631578947" transform="rotate(45, 160, 0)"></rect><rect width="36.36363636363637" height="6.684210526315789" x="221.8181818181818" y="-3.3421052631578947" stroke="none" fill="#e55e37" rx="3.3421052631578947" transform="rotate(45, 240, 0)"></rect><rect width="6.684210526315789" height="36.36363636363637" x="236.6578947368421" y="-18.181818181818183" stroke="none" fill="#e55e37" rx="3.3421052631578947" transform="rotate(45, 240, 0)"></rect><rect width="36.36363636363637" height="6.684210526315789" x="301.8181818181818" y="-3.3421052631578947" stroke="none" fill="#e56d47" rx="3.3421052631578947" transform="rotate(45, 320, 0)"></rect><rect width="6.684210526315789" height="36.36363636363637" x="316.6578947368421" y="-18.181818181818183" stroke="none" fill="#e56d47" rx="3.3421052631578947" transform="rotate(45, 320, 0)"></rect><rect width="36.36363636363637" height="6.684210526315789" x="381.8181818181818" y="-3.3421052631578947" stroke="none" fill="#e55e37" rx="3.3421052631578947" transform="rotate(45, 400, 0)"></rect><rect width="6.684210526315789" height="36.36363636363637" x="396.6578947368421" y="-18.181818181818183" stroke="none" fill="#e55e37" rx="3.3421052631578947" transform="rotate(45, 400, 0)"></rect><rect width="36.36363636363637" height="6.684210526315789" x="461.8181818181818" y="-3.3421052631578947" stroke="none" fill="#e56d47" rx="3.3421052631578947" transform="rotate(45, 480, 0)"></rect><rect width="6.684210526315789" height="36.36363636363637" x="476.6578947368421" y="-18.181818181818183" stroke="none" fill="#e56d47" rx="3.3421052631578947" transform="rotate(45, 480, 0)"></rect><rect width="36.36363636363637" height="6.684210526315789" x="541.8181818181819" y="-3.3421052631578947" stroke="none" fill="#e55e37" rx="3.3421052631578947" transform="rotate(45, 560, 0)"></rect><rect width="6.684210526315789" height="36.36363636363637" x="556.6578947368421" y="-18.181818181818183" stroke="none" fill="#e55e37" rx="3.3421052631578947" transform="rotate(45, 560, 0)"></rect><rect width="36.36363636363637" height="6.684210526315789" x="621.8181818181819" y="-3.3421052631578947" stroke="none" fill="#e56d47" rx="3.3421052631578947" transform="rotate(45, 640, 0)"></rect><rect width="6.684210526315789" height="36.36363636363637" x="636.6578947368421" y="-18.181818181818183" stroke="none" fill="#e56d47" rx="3.3421052631578947" transform="rotate(45, 640, 0)"></rect><rect width="36.36363636363637" height="6.684210526315789" x="701.8181818181819" y="-3.3421052631578947" stroke="none" fill="#e55e37" rx="3.3421052631578947" transform="rotate(45, 720, 0)"></rect><rect width="6.684210526315789" height="36.36363636363637" x="716.6578947368421" y="-18.181818181818183" stroke="none" fill="#e55e37" rx="3.3421052631578947" transform="rotate(45, 720, 0)"></rect><rect width="36.36363636363637" height="6.684210526315789" x="781.8181818181819" y="-3.3421052631578947" stroke="none" fill="#e56d47" rx="3.3421052631578947" transform="rotate(45, 800, 0)"></rect><rect width="6.684210526315789" height="36.36363636363637" x="796.6578947368421" y="-18.181818181818183" stroke="none" fill="#e56d47" rx="3.3421052631578947" transform="rotate(45, 800, 0)"></rect><rect width="36.36363636363637" height="6.684210526315789" x="-18.181818181818183" y="69.38516746411484" stroke="none" fill="#e55e37" rx="3.3421052631578947" transform="rotate(45, 0, 72.72727272727273)"></rect><rect width="6.684210526315789" height="36.36363636363637" x="-3.3421052631578947" y="54.54545454545455" stroke="none" fill="#e55e37" rx="3.3421052631578947" transform="rotate(45, 0, 72.72727272727273)"></rect><rect width="36.36363636363637" height="6.684210526315789" x="61.81818181818181" y="69.38516746411484" stroke="none" fill="#e56d47" rx="3.3421052631578947" transform="rotate(45, 80, 72.72727272727273)"></rect><rect width="6.684210526315789" height="36.36363636363637" x="76.65789473684211" y="54.54545454545455" stroke="none" fill="#e56d47" rx="3.3421052631578947" transform="rotate(45, 80, 72.72727272727273)"></rect><rect width="36.36363636363637" height="6.684210526315789" x="141.8181818181818" y="69.38516746411484" stroke="none" fill="#e55e37" rx="3.3421052631578947" transform="rotate(45, 160, 72.72727272727273)"></rect><rect width="6.684210526315789" height="36.36363636363637" x="156.6578947368421" y="54.54545454545455" stroke="none" fill="#e55e37" rx="3.3421052631578947" transform="rotate(45, 160, 72.72727272727273)"></rect><rect width="36.36363636363637" height="6.684210526315789" x="221.8181818181818" y="69.38516746411484" stroke="none" fill="#e56d47" rx="3.3421052631578947" transform="rotate(45, 240, 72.72727272727273)"></rect><rect width="6.684210526315789" height="36.36363636363637" x="236.6578947368421" y="54.54545454545455" stroke="none" fill="#e56d47" rx="3.3421052631578947" transform="rotate(45, 240, 72.72727272727273)"></rect><rect width="36.36363636363637" height="6.684210526315789" x="301.8181818181818" y="69.38516746411484" stroke="none" fill="#e55e37" rx="3.3421052631578947" transform="rotate(45, 320, 72.72727272727273)"></rect><rect width="6.684210526315789" height="36.36363636363637" x="316.6578947368421" y="54.54545454545455" stroke="none" fill="#e55e37" rx="3.3421052631578947" transform="rotate(45, 320, 72.72727272727273)"></rect><rect width="36.36363636363637" height="6.684210526315789" x="381.8181818181818" y="69.38516746411484" stroke="none" fill="#e56d47" rx="3.3421052631578947" transform="rotate(45, 400, 72.72727272727273)"></rect><rect width="6.684210526315789" height="36.36363636363637" x="396.6578947368421" y="54.54545454545455" stroke="none" fill="#e56d47" rx="3.3421052631578947" transform="rotate(45, 400, 72.72727272727273)"></rect><rect width="36.36363636363637" height="6.684210526315789" x="461.8181818181818" y="69.38516746411484" stroke="none" fill="#e55e37" rx="3.3421052631578947" transform="rotate(45, 480, 72.72727272727273)"></rect><rect width="6.684210526315789" height="36.36363636363637" x="476.6578947368421" y="54.54545454545455" stroke="none" fill="#e55e37" rx="3.3421052631578947" transform="rotate(45, 480, 72.72727272727273)"></rect><rect width="36.36363636363637" height="6.684210526315789" x="541.8181818181819" y="69.38516746411484" stroke="none" fill="#e56d47" rx="3.3421052631578947" transform="rotate(45, 560, 72.72727272727273)"></rect><rect width="6.684210526315789" height="36.36363636363637" x="556.6578947368421" y="54.54545454545455" stroke="none" fill="#e56d47" rx="3.3421052631578947" transform="rotate(45, 560, 72.72727272727273)"></rect><rect width="36.36363636363637" height="6.684210526315789" x="621.8181818181819" y="69.38516746411484" stroke="none" fill="#e55e37" rx="3.3421052631578947" transform="rotate(45, 640, 72.72727272727273)"></rect><rect width="6.684210526315789" height="36.36363636363637" x="636.6578947368421" y="54.54545454545455" stroke="none" fill="#e55e37" rx="3.3421052631578947" transform="rotate(45, 640, 72.72727272727273)"></rect><rect width="36.36363636363637" height="6.684210526315789" x="701.8181818181819" y="69.38516746411484" stroke="none" fill="#e56d47" rx="3.3421052631578947" transform="rotate(45, 720, 72.72727272727273)"></rect><rect width="6.684210526315789" height="36.36363636363637" x="716.6578947368421" y="54.54545454545455" stroke="none" fill="#e56d47" rx="3.3421052631578947" transform="rotate(45, 720, 72.72727272727273)"></rect><rect width="36.36363636363637" height="6.684210526315789" x="781.8181818181819" y="69.38516746411484" stroke="none" fill="#e55e37" rx="3.3421052631578947" transform="rotate(45, 800, 72.72727272727273)"></rect><rect width="6.684210526315789" height="36.36363636363637" x="796.6578947368421" y="54.54545454545455" stroke="none" fill="#e55e37" rx="3.3421052631578947" transform="rotate(45, 800, 72.72727272727273)"></rect><rect width="36.36363636363637" height="6.684210526315789" x="-18.181818181818183" y="142.11244019138758" stroke="none" fill="#e56d47" rx="3.3421052631578947" transform="rotate(45, 0, 145.45454545454547)"></rect><rect width="6.684210526315789" height="36.36363636363637" x="-3.3421052631578947" y="127.27272727272728" stroke="none" fill="#e56d47" rx="3.3421052631578947" transform="rotate(45, 0, 145.45454545454547)"></rect><rect width="36.36363636363637" height="6.684210526315789" x="61.81818181818181" y="142.11244019138758" stroke="none" fill="#e55e37" rx="3.3421052631578947" transform="rotate(45, 80, 145.45454545454547)"></rect><rect width="6.684210526315789" height="36.36363636363637" x="76.65789473684211" y="127.27272727272728" stroke="none" fill="#e55e37" rx="3.3421052631578947" transform="rotate(45, 80, 145.45454545454547)"></rect><rect width="36.36363636363637" height="6.684210526315789" x="141.8181818181818" y="142.11244019138758" stroke="none" fill="#e56d47" rx="3.3421052631578947" transform="rotate(45, 160, 145.45454545454547)"></rect><rect width="6.684210526315789" height="36.36363636363637" x="156.6578947368421" y="127.27272727272728" stroke="none" fill="#e56d47" rx="3.3421052631578947" transform="rotate(45, 160, 145.45454545454547)"></rect><rect width="36.36363636363637" height="6.684210526315789" x="221.8181818181818" y="142.11244019138758" stroke="none" fill="#e55e37" rx="3.3421052631578947" transform="rotate(45, 240, 145.45454545454547)"></rect><rect width="6.684210526315789" height="36.36363636363637" x="236.6578947368421" y="127.27272727272728" stroke="none" fill="#e55e37" rx="3.3421052631578947" transform="rotate(45, 240, 145.45454545454547)"></rect><rect width="36.36363636363637" height="6.684210526315789" x="301.8181818181818" y="142.11244019138758" stroke="none" fill="#e56d47" rx="3.3421052631578947" transform="rotate(45, 320, 145.45454545454547)"></rect><rect width="6.684210526315789" height="36.36363636363637" x="316.6578947368421" y="127.27272727272728" stroke="none" fill="#e56d47" rx="3.3421052631578947" transform="rotate(45, 320, 145.45454545454547)"></rect><rect width="36.36363636363637" height="6.684210526315789" x="381.8181818181818" y="142.11244019138758" stroke="none" fill="#e55e37" rx="3.3421052631578947" transform="rotate(45, 400, 145.45454545454547)"></rect><rect width="6.684210526315789" height="36.36363636363637" x="396.6578947368421" y="127.27272727272728" stroke="none" fill="#e55e37" rx="3.3421052631578947" transform="rotate(45, 400, 145.45454545454547)"></rect><rect width="36.36363636363637" height="6.684210526315789" x="461.8181818181818" y="142.11244019138758" stroke="none" fill="#e56d47" rx="3.3421052631578947" transform="rotate(45, 480, 145.45454545454547)"></rect><rect width="6.684210526315789" height="36.36363636363637" x="476.6578947368421" y="127.27272727272728" stroke="none" fill="#e56d47" rx="3.3421052631578947" transform="rotate(45, 480, 145.45454545454547)"></rect><rect width="36.36363636363637" height="6.684210526315789" x="541.8181818181819" y="142.11244019138758" stroke="none" fill="#e55e37" rx="3.3421052631578947" transform="rotate(45, 560, 145.45454545454547)"></rect><rect width="6.684210526315789" height="36.36363636363637" x="556.6578947368421" y="127.27272727272728" stroke="none" fill="#e55e37" rx="3.3421052631578947" transform="rotate(45, 560, 145.45454545454547)"></rect><rect width="36.36363636363637" height="6.684210526315789" x="621.8181818181819" y="142.11244019138758" stroke="none" fill="#e56d47" rx="3.3421052631578947" transform="rotate(45, 640, 145.45454545454547)"></rect><rect width="6.684210526315789" height="36.36363636363637" x="636.6578947368421" y="127.27272727272728" stroke="none" fill="#e56d47" rx="3.3421052631578947" transform="rotate(45, 640, 145.45454545454547)"></rect><rect width="36.36363636363637" height="6.684210526315789" x="701.8181818181819" y="142.11244019138758" stroke="none" fill="#e55e37" rx="3.3421052631578947" transform="rotate(45, 720, 145.45454545454547)"></rect><rect width="6.684210526315789" height="36.36363636363637" x="716.6578947368421" y="127.27272727272728" stroke="none" fill="#e55e37" rx="3.3421052631578947" transform="rotate(45, 720, 145.45454545454547)"></rect><rect width="36.36363636363637" height="6.684210526315789" x="781.8181818181819" y="142.11244019138758" stroke="none" fill="#e56d47" rx="3.3421052631578947" transform="rotate(45, 800, 145.45454545454547)"></rect><rect width="6.684210526315789" height="36.36363636363637" x="796.6578947368421" y="127.27272727272728" stroke="none" fill="#e56d47" rx="3.3421052631578947" transform="rotate(45, 800, 145.45454545454547)"></rect><rect width="36.36363636363637" height="6.684210526315789" x="-18.181818181818183" y="214.8397129186603" stroke="none" fill="#e55e37" rx="3.3421052631578947" transform="rotate(45, 0, 218.1818181818182)"></rect><rect width="6.684210526315789" height="36.36363636363637" x="-3.3421052631578947" y="200" stroke="none" fill="#e55e37" rx="3.3421052631578947" transform="rotate(45, 0, 218.1818181818182)"></rect><rect width="36.36363636363637" height="6.684210526315789" x="61.81818181818181" y="214.8397129186603" stroke="none" fill="#e56d47" rx="3.3421052631578947" transform="rotate(45, 80, 218.1818181818182)"></rect><rect width="6.684210526315789" height="36.36363636363637" x="76.65789473684211" y="200" stroke="none" fill="#e56d47" rx="3.3421052631578947" transform="rotate(45, 80, 218.1818181818182)"></rect><rect width="36.36363636363637" height="6.684210526315789" x="141.8181818181818" y="214.8397129186603" stroke="none" fill="#e55e37" rx="3.3421052631578947" transform="rotate(45, 160, 218.1818181818182)"></rect><rect width="6.684210526315789" height="36.36363636363637" x="156.6578947368421" y="200" stroke="none" fill="#e55e37" rx="3.3421052631578947" transform="rotate(45, 160, 218.1818181818182)"></rect><rect width="36.36363636363637" height="6.684210526315789" x="221.8181818181818" y="214.8397129186603" stroke="none" fill="#e56d47" rx="3.3421052631578947" transform="rotate(45, 240, 218.1818181818182)"></rect><rect width="6.684210526315789" height="36.36363636363637" x="236.6578947368421" y="200" stroke="none" fill="#e56d47" rx="3.3421052631578947" transform="rotate(45, 240, 218.1818181818182)"></rect><rect width="36.36363636363637" height="6.684210526315789" x="301.8181818181818" y="214.8397129186603" stroke="none" fill="#e55e37" rx="3.3421052631578947" transform="rotate(45, 320, 218.1818181818182)"></rect><rect width="6.684210526315789" height="36.36363636363637" x="316.6578947368421" y="200" stroke="none" fill="#e55e37" rx="3.3421052631578947" transform="rotate(45, 320, 218.1818181818182)"></rect><rect width="36.36363636363637" height="6.684210526315789" x="381.8181818181818" y="214.8397129186603" stroke="none" fill="#e56d47" rx="3.3421052631578947" transform="rotate(45, 400, 218.1818181818182)"></rect><rect width="6.684210526315789" height="36.36363636363637" x="396.6578947368421" y="200" stroke="none" fill="#e56d47" rx="3.3421052631578947" transform="rotate(45, 400, 218.1818181818182)"></rect><rect width="36.36363636363637" height="6.684210526315789" x="461.8181818181818" y="214.8397129186603" stroke="none" fill="#e55e37" rx="3.3421052631578947" transform="rotate(45, 480, 218.1818181818182)"></rect><rect width="6.684210526315789" height="36.36363636363637" x="476.6578947368421" y="200" stroke="none" fill="#e55e37" rx="3.3421052631578947" transform="rotate(45, 480, 218.1818181818182)"></rect><rect width="36.36363636363637" height="6.684210526315789" x="541.8181818181819" y="214.8397129186603" stroke="none" fill="#e56d47" rx="3.3421052631578947" transform="rotate(45, 560, 218.1818181818182)"></rect><rect width="6.684210526315789" height="36.36363636363637" x="556.6578947368421" y="200" stroke="none" fill="#e56d47" rx="3.3421052631578947" transform="rotate(45, 560, 218.1818181818182)"></rect><rect width="36.36363636363637" height="6.684210526315789" x="621.8181818181819" y="214.8397129186603" stroke="none" fill="#e55e37" rx="3.3421052631578947" transform="rotate(45, 640, 218.1818181818182)"></rect><rect width="6.684210526315789" height="36.36363636363637" x="636.6578947368421" y="200" stroke="none" fill="#e55e37" rx="3.3421052631578947" transform="rotate(45, 640, 218.1818181818182)"></rect><rect width="36.36363636363637" height="6.684210526315789" x="701.8181818181819" y="214.8397129186603" stroke="none" fill="#e56d47" rx="3.3421052631578947" transform="rotate(45, 720, 218.1818181818182)"></rect><rect width="6.684210526315789" height="36.36363636363637" x="716.6578947368421" y="200" stroke="none" fill="#e56d47" rx="3.3421052631578947" transform="rotate(45, 720, 218.1818181818182)"></rect><rect width="36.36363636363637" height="6.684210526315789" x="781.8181818181819" y="214.8397129186603" stroke="none" fill="#e55e37" rx="3.3421052631578947" transform="rotate(45, 800, 218.1818181818182)"></rect><rect width="6.684210526315789" height="36.36363636363637" x="796.6578947368421" y="200" stroke="none" fill="#e55e37" rx="3.3421052631578947" transform="rotate(45, 800, 218.1818181818182)"></rect><rect width="36.36363636363637" height="6.684210526315789" x="-18.181818181818183" y="287.566985645933" stroke="none" fill="#e56d47" rx="3.3421052631578947" transform="rotate(45, 0, 290.90909090909093)"></rect><rect width="6.684210526315789" height="36.36363636363637" x="-3.3421052631578947" y="272.72727272727275" stroke="none" fill="#e56d47" rx="3.3421052631578947" transform="rotate(45, 0, 290.90909090909093)"></rect><rect width="36.36363636363637" height="6.684210526315789" x="61.81818181818181" y="287.566985645933" stroke="none" fill="#e55e37" rx="3.3421052631578947" transform="rotate(45, 80, 290.90909090909093)"></rect><rect width="6.684210526315789" height="36.36363636363637" x="76.65789473684211" y="272.72727272727275" stroke="none" fill="#e55e37" rx="3.3421052631578947" transform="rotate(45, 80, 290.90909090909093)"></rect><rect width="36.36363636363637" height="6.684210526315789" x="141.8181818181818" y="287.566985645933" stroke="none" fill="#e56d47" rx="3.3421052631578947" transform="rotate(45, 160, 290.90909090909093)"></rect><rect width="6.684210526315789" height="36.36363636363637" x="156.6578947368421" y="272.72727272727275" stroke="none" fill="#e56d47" rx="3.3421052631578947" transform="rotate(45, 160, 290.90909090909093)"></rect><rect width="36.36363636363637" height="6.684210526315789" x="221.8181818181818" y="287.566985645933" stroke="none" fill="#e55e37" rx="3.3421052631578947" transform="rotate(45, 240, 290.90909090909093)"></rect><rect width="6.684210526315789" height="36.36363636363637" x="236.6578947368421" y="272.72727272727275" stroke="none" fill="#e55e37" rx="3.3421052631578947" transform="rotate(45, 240, 290.90909090909093)"></rect><rect width="36.36363636363637" height="6.684210526315789" x="301.8181818181818" y="287.566985645933" stroke="none" fill="#e56d47" rx="3.3421052631578947" transform="rotate(45, 320, 290.90909090909093)"></rect><rect width="6.684210526315789" height="36.36363636363637" x="316.6578947368421" y="272.72727272727275" stroke="none" fill="#e56d47" rx="3.3421052631578947" transform="rotate(45, 320, 290.90909090909093)"></rect><rect width="36.36363636363637" height="6.684210526315789" x="381.8181818181818" y="287.566985645933" stroke="none" fill="#e55e37" rx="3.3421052631578947" transform="rotate(45, 400, 290.90909090909093)"></rect><rect width="6.684210526315789" height="36.36363636363637" x="396.6578947368421" y="272.72727272727275" stroke="none" fill="#e55e37" rx="3.3421052631578947" transform="rotate(45, 400, 290.90909090909093)"></rect><rect width="36.36363636363637" height="6.684210526315789" x="461.8181818181818" y="287.566985645933" stroke="none" fill="#e56d47" rx="3.3421052631578947" transform="rotate(45, 480, 290.90909090909093)"></rect><rect width="6.684210526315789" height="36.36363636363637" x="476.6578947368421" y="272.72727272727275" stroke="none" fill="#e56d47" rx="3.3421052631578947" transform="rotate(45, 480, 290.90909090909093)"></rect><rect width="36.36363636363637" height="6.684210526315789" x="541.8181818181819" y="287.566985645933" stroke="none" fill="#e55e37" rx="3.3421052631578947" transform="rotate(45, 560, 290.90909090909093)"></rect><rect width="6.684210526315789" height="36.36363636363637" x="556.6578947368421" y="272.72727272727275" stroke="none" fill="#e55e37" rx="3.3421052631578947" transform="rotate(45, 560, 290.90909090909093)"></rect><rect width="36.36363636363637" height="6.684210526315789" x="621.8181818181819" y="287.566985645933" stroke="none" fill="#e56d47" rx="3.3421052631578947" transform="rotate(45, 640, 290.90909090909093)"></rect><rect width="6.684210526315789" height="36.36363636363637" x="636.6578947368421" y="272.72727272727275" stroke="none" fill="#e56d47" rx="3.3421052631578947" transform="rotate(45, 640, 290.90909090909093)"></rect><rect width="36.36363636363637" height="6.684210526315789" x="701.8181818181819" y="287.566985645933" stroke="none" fill="#e55e37" rx="3.3421052631578947" transform="rotate(45, 720, 290.90909090909093)"></rect><rect width="6.684210526315789" height="36.36363636363637" x="716.6578947368421" y="272.72727272727275" stroke="none" fill="#e55e37" rx="3.3421052631578947" transform="rotate(45, 720, 290.90909090909093)"></rect><rect width="36.36363636363637" height="6.684210526315789" x="781.8181818181819" y="287.566985645933" stroke="none" fill="#e56d47" rx="3.3421052631578947" transform="rotate(45, 800, 290.90909090909093)"></rect><rect width="6.684210526315789" height="36.36363636363637" x="796.6578947368421" y="272.72727272727275" stroke="none" fill="#e56d47" rx="3.3421052631578947" transform="rotate(45, 800, 290.90909090909093)"></rect><rect width="36.36363636363637" height="6.684210526315789" x="-18.181818181818183" y="360.29425837320576" stroke="none" fill="#e55e37" rx="3.3421052631578947" transform="rotate(45, 0, 363.6363636363637)"></rect><rect width="6.684210526315789" height="36.36363636363637" x="-3.3421052631578947" y="345.4545454545455" stroke="none" fill="#e55e37" rx="3.3421052631578947" transform="rotate(45, 0, 363.6363636363637)"></rect><rect width="36.36363636363637" height="6.684210526315789" x="61.81818181818181" y="360.29425837320576" stroke="none" fill="#e56d47" rx="3.3421052631578947" transform="rotate(45, 80, 363.6363636363637)"></rect><rect width="6.684210526315789" height="36.36363636363637" x="76.65789473684211" y="345.4545454545455" stroke="none" fill="#e56d47" rx="3.3421052631578947" transform="rotate(45, 80, 363.6363636363637)"></rect><rect width="36.36363636363637" height="6.684210526315789" x="141.8181818181818" y="360.29425837320576" stroke="none" fill="#e55e37" rx="3.3421052631578947" transform="rotate(45, 160, 363.6363636363637)"></rect><rect width="6.684210526315789" height="36.36363636363637" x="156.6578947368421" y="345.4545454545455" stroke="none" fill="#e55e37" rx="3.3421052631578947" transform="rotate(45, 160, 363.6363636363637)"></rect><rect width="36.36363636363637" height="6.684210526315789" x="221.8181818181818" y="360.29425837320576" stroke="none" fill="#e56d47" rx="3.3421052631578947" transform="rotate(45, 240, 363.6363636363637)"></rect><rect width="6.684210526315789" height="36.36363636363637" x="236.6578947368421" y="345.4545454545455" stroke="none" fill="#e56d47" rx="3.3421052631578947" transform="rotate(45, 240, 363.6363636363637)"></rect><rect width="36.36363636363637" height="6.684210526315789" x="301.8181818181818" y="360.29425837320576" stroke="none" fill="#e55e37" rx="3.3421052631578947" transform="rotate(45, 320, 363.6363636363637)"></rect><rect width="6.684210526315789" height="36.36363636363637" x="316.6578947368421" y="345.4545454545455" stroke="none" fill="#e55e37" rx="3.3421052631578947" transform="rotate(45, 320, 363.6363636363637)"></rect><rect width="36.36363636363637" height="6.684210526315789" x="381.8181818181818" y="360.29425837320576" stroke="none" fill="#e56d47" rx="3.3421052631578947" transform="rotate(45, 400, 363.6363636363637)"></rect><rect width="6.684210526315789" height="36.36363636363637" x="396.6578947368421" y="345.4545454545455" stroke="none" fill="#e56d47" rx="3.3421052631578947" transform="rotate(45, 400, 363.6363636363637)"></rect><rect width="36.36363636363637" height="6.684210526315789" x="461.8181818181818" y="360.29425837320576" stroke="none" fill="#e55e37" rx="3.3421052631578947" transform="rotate(45, 480, 363.6363636363637)"></rect><rect width="6.684210526315789" height="36.36363636363637" x="476.6578947368421" y="345.4545454545455" stroke="none" fill="#e55e37" rx="3.3421052631578947" transform="rotate(45, 480, 363.6363636363637)"></rect><rect width="36.36363636363637" height="6.684210526315789" x="541.8181818181819" y="360.29425837320576" stroke="none" fill="#e56d47" rx="3.3421052631578947" transform="rotate(45, 560, 363.6363636363637)"></rect><rect width="6.684210526315789" height="36.36363636363637" x="556.6578947368421" y="345.4545454545455" stroke="none" fill="#e56d47" rx="3.3421052631578947" transform="rotate(45, 560, 363.6363636363637)"></rect><rect width="36.36363636363637" height="6.684210526315789" x="621.8181818181819" y="360.29425837320576" stroke="none" fill="#e55e37" rx="3.3421052631578947" transform="rotate(45, 640, 363.6363636363637)"></rect><rect width="6.684210526315789" height="36.36363636363637" x="636.6578947368421" y="345.4545454545455" stroke="none" fill="#e55e37" rx="3.3421052631578947" transform="rotate(45, 640, 363.6363636363637)"></rect><rect width="36.36363636363637" height="6.684210526315789" x="701.8181818181819" y="360.29425837320576" stroke="none" fill="#e56d47" rx="3.3421052631578947" transform="rotate(45, 720, 363.6363636363637)"></rect><rect width="6.684210526315789" height="36.36363636363637" x="716.6578947368421" y="345.4545454545455" stroke="none" fill="#e56d47" rx="3.3421052631578947" transform="rotate(45, 720, 363.6363636363637)"></rect><rect width="36.36363636363637" height="6.684210526315789" x="781.8181818181819" y="360.29425837320576" stroke="none" fill="#e55e37" rx="3.3421052631578947" transform="rotate(45, 800, 363.6363636363637)"></rect><rect width="6.684210526315789" height="36.36363636363637" x="796.6578947368421" y="345.4545454545455" stroke="none" fill="#e55e37" rx="3.3421052631578947" transform="rotate(45, 800, 363.6363636363637)"></rect><rect width="36.36363636363637" height="6.684210526315789" x="-18.181818181818183" y="433.0215311004785" stroke="none" fill="#e56d47" rx="3.3421052631578947" transform="rotate(45, 0, 436.36363636363643)"></rect><rect width="6.684210526315789" height="36.36363636363637" x="-3.3421052631578947" y="418.18181818181824" stroke="none" fill="#e56d47" rx="3.3421052631578947" transform="rotate(45, 0, 436.36363636363643)"></rect><rect width="36.36363636363637" height="6.684210526315789" x="61.81818181818181" y="433.0215311004785" stroke="none" fill="#e55e37" rx="3.3421052631578947" transform="rotate(45, 80, 436.36363636363643)"></rect><rect width="6.684210526315789" height="36.36363636363637" x="76.65789473684211" y="418.18181818181824" stroke="none" fill="#e55e37" rx="3.3421052631578947" transform="rotate(45, 80, 436.36363636363643)"></rect><rect width="36.36363636363637" height="6.684210526315789" x="141.8181818181818" y="433.0215311004785" stroke="none" fill="#e56d47" rx="3.3421052631578947" transform="rotate(45, 160, 436.36363636363643)"></rect><rect width="6.684210526315789" height="36.36363636363637" x="156.6578947368421" y="418.18181818181824" stroke="none" fill="#e56d47" rx="3.3421052631578947" transform="rotate(45, 160, 436.36363636363643)"></rect><rect width="36.36363636363637" height="6.684210526315789" x="221.8181818181818" y="433.0215311004785" stroke="none" fill="#e55e37" rx="3.3421052631578947" transform="rotate(45, 240, 436.36363636363643)"></rect><rect width="6.684210526315789" height="36.36363636363637" x="236.6578947368421" y="418.18181818181824" stroke="none" fill="#e55e37" rx="3.3421052631578947" transform="rotate(45, 240, 436.36363636363643)"></rect><rect width="36.36363636363637" height="6.684210526315789" x="301.8181818181818" y="433.0215311004785" stroke="none" fill="#e56d47" rx="3.3421052631578947" transform="rotate(45, 320, 436.36363636363643)"></rect><rect width="6.684210526315789" height="36.36363636363637" x="316.6578947368421" y="418.18181818181824" stroke="none" fill="#e56d47" rx="3.3421052631578947" transform="rotate(45, 320, 436.36363636363643)"></rect><rect width="36.36363636363637" height="6.684210526315789" x="381.8181818181818" y="433.0215311004785" stroke="none" fill="#e55e37" rx="3.3421052631578947" transform="rotate(45, 400, 436.36363636363643)"></rect><rect width="6.684210526315789" height="36.36363636363637" x="396.6578947368421" y="418.18181818181824" stroke="none" fill="#e55e37" rx="3.3421052631578947" transform="rotate(45, 400, 436.36363636363643)"></rect><rect width="36.36363636363637" height="6.684210526315789" x="461.8181818181818" y="433.0215311004785" stroke="none" fill="#e56d47" rx="3.3421052631578947" transform="rotate(45, 480, 436.36363636363643)"></rect><rect width="6.684210526315789" height="36.36363636363637" x="476.6578947368421" y="418.18181818181824" stroke="none" fill="#e56d47" rx="3.3421052631578947" transform="rotate(45, 480, 436.36363636363643)"></rect><rect width="36.36363636363637" height="6.684210526315789" x="541.8181818181819" y="433.0215311004785" stroke="none" fill="#e55e37" rx="3.3421052631578947" transform="rotate(45, 560, 436.36363636363643)"></rect><rect width="6.684210526315789" height="36.36363636363637" x="556.6578947368421" y="418.18181818181824" stroke="none" fill="#e55e37" rx="3.3421052631578947" transform="rotate(45, 560, 436.36363636363643)"></rect><rect width="36.36363636363637" height="6.684210526315789" x="621.8181818181819" y="433.0215311004785" stroke="none" fill="#e56d47" rx="3.3421052631578947" transform="rotate(45, 640, 436.36363636363643)"></rect><rect width="6.684210526315789" height="36.36363636363637" x="636.6578947368421" y="418.18181818181824" stroke="none" fill="#e56d47" rx="3.3421052631578947" transform="rotate(45, 640, 436.36363636363643)"></rect><rect width="36.36363636363637" height="6.684210526315789" x="701.8181818181819" y="433.0215311004785" stroke="none" fill="#e55e37" rx="3.3421052631578947" transform="rotate(45, 720, 436.36363636363643)"></rect><rect width="6.684210526315789" height="36.36363636363637" x="716.6578947368421" y="418.18181818181824" stroke="none" fill="#e55e37" rx="3.3421052631578947" transform="rotate(45, 720, 436.36363636363643)"></rect><rect width="36.36363636363637" height="6.684210526315789" x="781.8181818181819" y="433.0215311004785" stroke="none" fill="#e56d47" rx="3.3421052631578947" transform="rotate(45, 800, 436.36363636363643)"></rect><rect width="6.684210526315789" height="36.36363636363637" x="796.6578947368421" y="418.18181818181824" stroke="none" fill="#e56d47" rx="3.3421052631578947" transform="rotate(45, 800, 436.36363636363643)"></rect><rect width="36.36363636363637" height="6.684210526315789" x="-18.181818181818183" y="505.74880382775126" stroke="none" fill="#e55e37" rx="3.3421052631578947" transform="rotate(45, 0, 509.0909090909092)"></rect><rect width="6.684210526315789" height="36.36363636363637" x="-3.3421052631578947" y="490.909090909091" stroke="none" fill="#e55e37" rx="3.3421052631578947" transform="rotate(45, 0, 509.0909090909092)"></rect><rect width="36.36363636363637" height="6.684210526315789" x="61.81818181818181" y="505.74880382775126" stroke="none" fill="#e56d47" rx="3.3421052631578947" transform="rotate(45, 80, 509.0909090909092)"></rect><rect width="6.684210526315789" height="36.36363636363637" x="76.65789473684211" y="490.909090909091" stroke="none" fill="#e56d47" rx="3.3421052631578947" transform="rotate(45, 80, 509.0909090909092)"></rect><rect width="36.36363636363637" height="6.684210526315789" x="141.8181818181818" y="505.74880382775126" stroke="none" fill="#e55e37" rx="3.3421052631578947" transform="rotate(45, 160, 509.0909090909092)"></rect><rect width="6.684210526315789" height="36.36363636363637" x="156.6578947368421" y="490.909090909091" stroke="none" fill="#e55e37" rx="3.3421052631578947" transform="rotate(45, 160, 509.0909090909092)"></rect><rect width="36.36363636363637" height="6.684210526315789" x="221.8181818181818" y="505.74880382775126" stroke="none" fill="#e56d47" rx="3.3421052631578947" transform="rotate(45, 240, 509.0909090909092)"></rect><rect width="6.684210526315789" height="36.36363636363637" x="236.6578947368421" y="490.909090909091" stroke="none" fill="#e56d47" rx="3.3421052631578947" transform="rotate(45, 240, 509.0909090909092)"></rect><rect width="36.36363636363637" height="6.684210526315789" x="301.8181818181818" y="505.74880382775126" stroke="none" fill="#e55e37" rx="3.3421052631578947" transform="rotate(45, 320, 509.0909090909092)"></rect><rect width="6.684210526315789" height="36.36363636363637" x="316.6578947368421" y="490.909090909091" stroke="none" fill="#e55e37" rx="3.3421052631578947" transform="rotate(45, 320, 509.0909090909092)"></rect><rect width="36.36363636363637" height="6.684210526315789" x="381.8181818181818" y="505.74880382775126" stroke="none" fill="#e56d47" rx="3.3421052631578947" transform="rotate(45, 400, 509.0909090909092)"></rect><rect width="6.684210526315789" height="36.36363636363637" x="396.6578947368421" y="490.909090909091" stroke="none" fill="#e56d47" rx="3.3421052631578947" transform="rotate(45, 400, 509.0909090909092)"></rect><rect width="36.36363636363637" height="6.684210526315789" x="461.8181818181818" y="505.74880382775126" stroke="none" fill="#e55e37" rx="3.3421052631578947" transform="rotate(45, 480, 509.0909090909092)"></rect><rect width="6.684210526315789" height="36.36363636363637" x="476.6578947368421" y="490.909090909091" stroke="none" fill="#e55e37" rx="3.3421052631578947" transform="rotate(45, 480, 509.0909090909092)"></rect><rect width="36.36363636363637" height="6.684210526315789" x="541.8181818181819" y="505.74880382775126" stroke="none" fill="#e56d47" rx="3.3421052631578947" transform="rotate(45, 560, 509.0909090909092)"></rect><rect width="6.684210526315789" height="36.36363636363637" x="556.6578947368421" y="490.909090909091" stroke="none" fill="#e56d47" rx="3.3421052631578947" transform="rotate(45, 560, 509.0909090909092)"></rect><rect width="36.36363636363637" height="6.684210526315789" x="621.8181818181819" y="505.74880382775126" stroke="none" fill="#e55e37" rx="3.3421052631578947" transform="rotate(45, 640, 509.0909090909092)"></rect><rect width="6.684210526315789" height="36.36363636363637" x="636.6578947368421" y="490.909090909091" stroke="none" fill="#e55e37" rx="3.3421052631578947" transform="rotate(45, 640, 509.0909090909092)"></rect><rect width="36.36363636363637" height="6.684210526315789" x="701.8181818181819" y="505.74880382775126" stroke="none" fill="#e56d47" rx="3.3421052631578947" transform="rotate(45, 720, 509.0909090909092)"></rect><rect width="6.684210526315789" height="36.36363636363637" x="716.6578947368421" y="490.909090909091" stroke="none" fill="#e56d47" rx="3.3421052631578947" transform="rotate(45, 720, 509.0909090909092)"></rect><rect width="36.36363636363637" height="6.684210526315789" x="781.8181818181819" y="505.74880382775126" stroke="none" fill="#e55e37" rx="3.3421052631578947" transform="rotate(45, 800, 509.0909090909092)"></rect><rect width="6.684210526315789" height="36.36363636363637" x="796.6578947368421" y="490.909090909091" stroke="none" fill="#e55e37" rx="3.3421052631578947" transform="rotate(45, 800, 509.0909090909092)"></rect><rect width="36.36363636363637" height="6.684210526315789" x="-18.181818181818183" y="578.476076555024" stroke="none" fill="#e56d47" rx="3.3421052631578947" transform="rotate(45, 0, 581.8181818181819)"></rect><rect width="6.684210526315789" height="36.36363636363637" x="-3.3421052631578947" y="563.6363636363637" stroke="none" fill="#e56d47" rx="3.3421052631578947" transform="rotate(45, 0, 581.8181818181819)"></rect><rect width="36.36363636363637" height="6.684210526315789" x="61.81818181818181" y="578.476076555024" stroke="none" fill="#e55e37" rx="3.3421052631578947" transform="rotate(45, 80, 581.8181818181819)"></rect><rect width="6.684210526315789" height="36.36363636363637" x="76.65789473684211" y="563.6363636363637" stroke="none" fill="#e55e37" rx="3.3421052631578947" transform="rotate(45, 80, 581.8181818181819)"></rect><rect width="36.36363636363637" height="6.684210526315789" x="141.8181818181818" y="578.476076555024" stroke="none" fill="#e56d47" rx="3.3421052631578947" transform="rotate(45, 160, 581.8181818181819)"></rect><rect width="6.684210526315789" height="36.36363636363637" x="156.6578947368421" y="563.6363636363637" stroke="none" fill="#e56d47" rx="3.3421052631578947" transform="rotate(45, 160, 581.8181818181819)"></rect><rect width="36.36363636363637" height="6.684210526315789" x="221.8181818181818" y="578.476076555024" stroke="none" fill="#e55e37" rx="3.3421052631578947" transform="rotate(45, 240, 581.8181818181819)"></rect><rect width="6.684210526315789" height="36.36363636363637" x="236.6578947368421" y="563.6363636363637" stroke="none" fill="#e55e37" rx="3.3421052631578947" transform="rotate(45, 240, 581.8181818181819)"></rect><rect width="36.36363636363637" height="6.684210526315789" x="301.8181818181818" y="578.476076555024" stroke="none" fill="#e56d47" rx="3.3421052631578947" transform="rotate(45, 320, 581.8181818181819)"></rect><rect width="6.684210526315789" height="36.36363636363637" x="316.6578947368421" y="563.6363636363637" stroke="none" fill="#e56d47" rx="3.3421052631578947" transform="rotate(45, 320, 581.8181818181819)"></rect><rect width="36.36363636363637" height="6.684210526315789" x="381.8181818181818" y="578.476076555024" stroke="none" fill="#e55e37" rx="3.3421052631578947" transform="rotate(45, 400, 581.8181818181819)"></rect><rect width="6.684210526315789" height="36.36363636363637" x="396.6578947368421" y="563.6363636363637" stroke="none" fill="#e55e37" rx="3.3421052631578947" transform="rotate(45, 400, 581.8181818181819)"></rect><rect width="36.36363636363637" height="6.684210526315789" x="461.8181818181818" y="578.476076555024" stroke="none" fill="#e56d47" rx="3.3421052631578947" transform="rotate(45, 480, 581.8181818181819)"></rect><rect width="6.684210526315789" height="36.36363636363637" x="476.6578947368421" y="563.6363636363637" stroke="none" fill="#e56d47" rx="3.3421052631578947" transform="rotate(45, 480, 581.8181818181819)"></rect><rect width="36.36363636363637" height="6.684210526315789" x="541.8181818181819" y="578.476076555024" stroke="none" fill="#e55e37" rx="3.3421052631578947" transform="rotate(45, 560, 581.8181818181819)"></rect><rect width="6.684210526315789" height="36.36363636363637" x="556.6578947368421" y="563.6363636363637" stroke="none" fill="#e55e37" rx="3.3421052631578947" transform="rotate(45, 560, 581.8181818181819)"></rect><rect width="36.36363636363637" height="6.684210526315789" x="621.8181818181819" y="578.476076555024" stroke="none" fill="#e56d47" rx="3.3421052631578947" transform="rotate(45, 640, 581.8181818181819)"></rect><rect width="6.684210526315789" height="36.36363636363637" x="636.6578947368421" y="563.6363636363637" stroke="none" fill="#e56d47" rx="3.3421052631578947" transform="rotate(45, 640, 581.8181818181819)"></rect><rect width="36.36363636363637" height="6.684210526315789" x="701.8181818181819" y="578.476076555024" stroke="none" fill="#e55e37" rx="3.3421052631578947" transform="rotate(45, 720, 581.8181818181819)"></rect><rect width="6.684210526315789" height="36.36363636363637" x="716.6578947368421" y="563.6363636363637" stroke="none" fill="#e55e37" rx="3.3421052631578947" transform="rotate(45, 720, 581.8181818181819)"></rect><rect width="36.36363636363637" height="6.684210526315789" x="781.8181818181819" y="578.476076555024" stroke="none" fill="#e56d47" rx="3.3421052631578947" transform="rotate(45, 800, 581.8181818181819)"></rect><rect width="6.684210526315789" height="36.36363636363637" x="796.6578947368421" y="563.6363636363637" stroke="none" fill="#e56d47" rx="3.3421052631578947" transform="rotate(45, 800, 581.8181818181819)"></rect><rect width="36.36363636363637" height="6.684210526315789" x="-18.181818181818183" y="651.2033492822967" stroke="none" fill="#e55e37" rx="3.3421052631578947" transform="rotate(45, 0, 654.5454545454546)"></rect><rect width="6.684210526315789" height="36.36363636363637" x="-3.3421052631578947" y="636.3636363636365" stroke="none" fill="#e55e37" rx="3.3421052631578947" transform="rotate(45, 0, 654.5454545454546)"></rect><rect width="36.36363636363637" height="6.684210526315789" x="61.81818181818181" y="651.2033492822967" stroke="none" fill="#e56d47" rx="3.3421052631578947" transform="rotate(45, 80, 654.5454545454546)"></rect><rect width="6.684210526315789" height="36.36363636363637" x="76.65789473684211" y="636.3636363636365" stroke="none" fill="#e56d47" rx="3.3421052631578947" transform="rotate(45, 80, 654.5454545454546)"></rect><rect width="36.36363636363637" height="6.684210526315789" x="141.8181818181818" y="651.2033492822967" stroke="none" fill="#e55e37" rx="3.3421052631578947" transform="rotate(45, 160, 654.5454545454546)"></rect><rect width="6.684210526315789" height="36.36363636363637" x="156.6578947368421" y="636.3636363636365" stroke="none" fill="#e55e37" rx="3.3421052631578947" transform="rotate(45, 160, 654.5454545454546)"></rect><rect width="36.36363636363637" height="6.684210526315789" x="221.8181818181818" y="651.2033492822967" stroke="none" fill="#e56d47" rx="3.3421052631578947" transform="rotate(45, 240, 654.5454545454546)"></rect><rect width="6.684210526315789" height="36.36363636363637" x="236.6578947368421" y="636.3636363636365" stroke="none" fill="#e56d47" rx="3.3421052631578947" transform="rotate(45, 240, 654.5454545454546)"></rect><rect width="36.36363636363637" height="6.684210526315789" x="301.8181818181818" y="651.2033492822967" stroke="none" fill="#e55e37" rx="3.3421052631578947" transform="rotate(45, 320, 654.5454545454546)"></rect><rect width="6.684210526315789" height="36.36363636363637" x="316.6578947368421" y="636.3636363636365" stroke="none" fill="#e55e37" rx="3.3421052631578947" transform="rotate(45, 320, 654.5454545454546)"></rect><rect width="36.36363636363637" height="6.684210526315789" x="381.8181818181818" y="651.2033492822967" stroke="none" fill="#e56d47" rx="3.3421052631578947" transform="rotate(45, 400, 654.5454545454546)"></rect><rect width="6.684210526315789" height="36.36363636363637" x="396.6578947368421" y="636.3636363636365" stroke="none" fill="#e56d47" rx="3.3421052631578947" transform="rotate(45, 400, 654.5454545454546)"></rect><rect width="36.36363636363637" height="6.684210526315789" x="461.8181818181818" y="651.2033492822967" stroke="none" fill="#e55e37" rx="3.3421052631578947" transform="rotate(45, 480, 654.5454545454546)"></rect><rect width="6.684210526315789" height="36.36363636363637" x="476.6578947368421" y="636.3636363636365" stroke="none" fill="#e55e37" rx="3.3421052631578947" transform="rotate(45, 480, 654.5454545454546)"></rect><rect width="36.36363636363637" height="6.684210526315789" x="541.8181818181819" y="651.2033492822967" stroke="none" fill="#e56d47" rx="3.3421052631578947" transform="rotate(45, 560, 654.5454545454546)"></rect><rect width="6.684210526315789" height="36.36363636363637" x="556.6578947368421" y="636.3636363636365" stroke="none" fill="#e56d47" rx="3.3421052631578947" transform="rotate(45, 560, 654.5454545454546)"></rect><rect width="36.36363636363637" height="6.684210526315789" x="621.8181818181819" y="651.2033492822967" stroke="none" fill="#e55e37" rx="3.3421052631578947" transform="rotate(45, 640, 654.5454545454546)"></rect><rect width="6.684210526315789" height="36.36363636363637" x="636.6578947368421" y="636.3636363636365" stroke="none" fill="#e55e37" rx="3.3421052631578947" transform="rotate(45, 640, 654.5454545454546)"></rect><rect width="36.36363636363637" height="6.684210526315789" x="701.8181818181819" y="651.2033492822967" stroke="none" fill="#e56d47" rx="3.3421052631578947" transform="rotate(45, 720, 654.5454545454546)"></rect><rect width="6.684210526315789" height="36.36363636363637" x="716.6578947368421" y="636.3636363636365" stroke="none" fill="#e56d47" rx="3.3421052631578947" transform="rotate(45, 720, 654.5454545454546)"></rect><rect width="36.36363636363637" height="6.684210526315789" x="781.8181818181819" y="651.2033492822967" stroke="none" fill="#e55e37" rx="3.3421052631578947" transform="rotate(45, 800, 654.5454545454546)"></rect><rect width="6.684210526315789" height="36.36363636363637" x="796.6578947368421" y="636.3636363636365" stroke="none" fill="#e55e37" rx="3.3421052631578947" transform="rotate(45, 800, 654.5454545454546)"></rect><rect width="36.36363636363637" height="6.684210526315789" x="-18.181818181818183" y="723.9306220095694" stroke="none" fill="#e56d47" rx="3.3421052631578947" transform="rotate(45, 0, 727.2727272727274)"></rect><rect width="6.684210526315789" height="36.36363636363637" x="-3.3421052631578947" y="709.0909090909092" stroke="none" fill="#e56d47" rx="3.3421052631578947" transform="rotate(45, 0, 727.2727272727274)"></rect><rect width="36.36363636363637" height="6.684210526315789" x="61.81818181818181" y="723.9306220095694" stroke="none" fill="#e55e37" rx="3.3421052631578947" transform="rotate(45, 80, 727.2727272727274)"></rect><rect width="6.684210526315789" height="36.36363636363637" x="76.65789473684211" y="709.0909090909092" stroke="none" fill="#e55e37" rx="3.3421052631578947" transform="rotate(45, 80, 727.2727272727274)"></rect><rect width="36.36363636363637" height="6.684210526315789" x="141.8181818181818" y="723.9306220095694" stroke="none" fill="#e56d47" rx="3.3421052631578947" transform="rotate(45, 160, 727.2727272727274)"></rect><rect width="6.684210526315789" height="36.36363636363637" x="156.6578947368421" y="709.0909090909092" stroke="none" fill="#e56d47" rx="3.3421052631578947" transform="rotate(45, 160, 727.2727272727274)"></rect><rect width="36.36363636363637" height="6.684210526315789" x="221.8181818181818" y="723.9306220095694" stroke="none" fill="#e55e37" rx="3.3421052631578947" transform="rotate(45, 240, 727.2727272727274)"></rect><rect width="6.684210526315789" height="36.36363636363637" x="236.6578947368421" y="709.0909090909092" stroke="none" fill="#e55e37" rx="3.3421052631578947" transform="rotate(45, 240, 727.2727272727274)"></rect><rect width="36.36363636363637" height="6.684210526315789" x="301.8181818181818" y="723.9306220095694" stroke="none" fill="#e56d47" rx="3.3421052631578947" transform="rotate(45, 320, 727.2727272727274)"></rect><rect width="6.684210526315789" height="36.36363636363637" x="316.6578947368421" y="709.0909090909092" stroke="none" fill="#e56d47" rx="3.3421052631578947" transform="rotate(45, 320, 727.2727272727274)"></rect><rect width="36.36363636363637" height="6.684210526315789" x="381.8181818181818" y="723.9306220095694" stroke="none" fill="#e55e37" rx="3.3421052631578947" transform="rotate(45, 400, 727.2727272727274)"></rect><rect width="6.684210526315789" height="36.36363636363637" x="396.6578947368421" y="709.0909090909092" stroke="none" fill="#e55e37" rx="3.3421052631578947" transform="rotate(45, 400, 727.2727272727274)"></rect><rect width="36.36363636363637" height="6.684210526315789" x="461.8181818181818" y="723.9306220095694" stroke="none" fill="#e56d47" rx="3.3421052631578947" transform="rotate(45, 480, 727.2727272727274)"></rect><rect width="6.684210526315789" height="36.36363636363637" x="476.6578947368421" y="709.0909090909092" stroke="none" fill="#e56d47" rx="3.3421052631578947" transform="rotate(45, 480, 727.2727272727274)"></rect><rect width="36.36363636363637" height="6.684210526315789" x="541.8181818181819" y="723.9306220095694" stroke="none" fill="#e55e37" rx="3.3421052631578947" transform="rotate(45, 560, 727.2727272727274)"></rect><rect width="6.684210526315789" height="36.36363636363637" x="556.6578947368421" y="709.0909090909092" stroke="none" fill="#e55e37" rx="3.3421052631578947" transform="rotate(45, 560, 727.2727272727274)"></rect><rect width="36.36363636363637" height="6.684210526315789" x="621.8181818181819" y="723.9306220095694" stroke="none" fill="#e56d47" rx="3.3421052631578947" transform="rotate(45, 640, 727.2727272727274)"></rect><rect width="6.684210526315789" height="36.36363636363637" x="636.6578947368421" y="709.0909090909092" stroke="none" fill="#e56d47" rx="3.3421052631578947" transform="rotate(45, 640, 727.2727272727274)"></rect><rect width="36.36363636363637" height="6.684210526315789" x="701.8181818181819" y="723.9306220095694" stroke="none" fill="#e55e37" rx="3.3421052631578947" transform="rotate(45, 720, 727.2727272727274)"></rect><rect width="6.684210526315789" height="36.36363636363637" x="716.6578947368421" y="709.0909090909092" stroke="none" fill="#e55e37" rx="3.3421052631578947" transform="rotate(45, 720, 727.2727272727274)"></rect><rect width="36.36363636363637" height="6.684210526315789" x="781.8181818181819" y="723.9306220095694" stroke="none" fill="#e56d47" rx="3.3421052631578947" transform="rotate(45, 800, 727.2727272727274)"></rect><rect width="6.684210526315789" height="36.36363636363637" x="796.6578947368421" y="709.0909090909092" stroke="none" fill="#e56d47" rx="3.3421052631578947" transform="rotate(45, 800, 727.2727272727274)"></rect><rect width="36.36363636363637" height="6.684210526315789" x="-18.181818181818183" y="796.6578947368422" stroke="none" fill="#e55e37" rx="3.3421052631578947" transform="rotate(45, 0, 800.0000000000001)"></rect><rect width="6.684210526315789" height="36.36363636363637" x="-3.3421052631578947" y="781.818181818182" stroke="none" fill="#e55e37" rx="3.3421052631578947" transform="rotate(45, 0, 800.0000000000001)"></rect><rect width="36.36363636363637" height="6.684210526315789" x="61.81818181818181" y="796.6578947368422" stroke="none" fill="#e56d47" rx="3.3421052631578947" transform="rotate(45, 80, 800.0000000000001)"></rect><rect width="6.684210526315789" height="36.36363636363637" x="76.65789473684211" y="781.818181818182" stroke="none" fill="#e56d47" rx="3.3421052631578947" transform="rotate(45, 80, 800.0000000000001)"></rect><rect width="36.36363636363637" height="6.684210526315789" x="141.8181818181818" y="796.6578947368422" stroke="none" fill="#e55e37" rx="3.3421052631578947" transform="rotate(45, 160, 800.0000000000001)"></rect><rect width="6.684210526315789" height="36.36363636363637" x="156.6578947368421" y="781.818181818182" stroke="none" fill="#e55e37" rx="3.3421052631578947" transform="rotate(45, 160, 800.0000000000001)"></rect><rect width="36.36363636363637" height="6.684210526315789" x="221.8181818181818" y="796.6578947368422" stroke="none" fill="#e56d47" rx="3.3421052631578947" transform="rotate(45, 240, 800.0000000000001)"></rect><rect width="6.684210526315789" height="36.36363636363637" x="236.6578947368421" y="781.818181818182" stroke="none" fill="#e56d47" rx="3.3421052631578947" transform="rotate(45, 240, 800.0000000000001)"></rect><rect width="36.36363636363637" height="6.684210526315789" x="301.8181818181818" y="796.6578947368422" stroke="none" fill="#e55e37" rx="3.3421052631578947" transform="rotate(45, 320, 800.0000000000001)"></rect><rect width="6.684210526315789" height="36.36363636363637" x="316.6578947368421" y="781.818181818182" stroke="none" fill="#e55e37" rx="3.3421052631578947" transform="rotate(45, 320, 800.0000000000001)"></rect><rect width="36.36363636363637" height="6.684210526315789" x="381.8181818181818" y="796.6578947368422" stroke="none" fill="#e56d47" rx="3.3421052631578947" transform="rotate(45, 400, 800.0000000000001)"></rect><rect width="6.684210526315789" height="36.36363636363637" x="396.6578947368421" y="781.818181818182" stroke="none" fill="#e56d47" rx="3.3421052631578947" transform="rotate(45, 400, 800.0000000000001)"></rect><rect width="36.36363636363637" height="6.684210526315789" x="461.8181818181818" y="796.6578947368422" stroke="none" fill="#e55e37" rx="3.3421052631578947" transform="rotate(45, 480, 800.0000000000001)"></rect><rect width="6.684210526315789" height="36.36363636363637" x="476.6578947368421" y="781.818181818182" stroke="none" fill="#e55e37" rx="3.3421052631578947" transform="rotate(45, 480, 800.0000000000001)"></rect><rect width="36.36363636363637" height="6.684210526315789" x="541.8181818181819" y="796.6578947368422" stroke="none" fill="#e56d47" rx="3.3421052631578947" transform="rotate(45, 560, 800.0000000000001)"></rect><rect width="6.684210526315789" height="36.36363636363637" x="556.6578947368421" y="781.818181818182" stroke="none" fill="#e56d47" rx="3.3421052631578947" transform="rotate(45, 560, 800.0000000000001)"></rect><rect width="36.36363636363637" height="6.684210526315789" x="621.8181818181819" y="796.6578947368422" stroke="none" fill="#e55e37" rx="3.3421052631578947" transform="rotate(45, 640, 800.0000000000001)"></rect><rect width="6.684210526315789" height="36.36363636363637" x="636.6578947368421" y="781.818181818182" stroke="none" fill="#e55e37" rx="3.3421052631578947" transform="rotate(45, 640, 800.0000000000001)"></rect><rect width="36.36363636363637" height="6.684210526315789" x="701.8181818181819" y="796.6578947368422" stroke="none" fill="#e56d47" rx="3.3421052631578947" transform="rotate(45, 720, 800.0000000000001)"></rect><rect width="6.684210526315789" height="36.36363636363637" x="716.6578947368421" y="781.818181818182" stroke="none" fill="#e56d47" rx="3.3421052631578947" transform="rotate(45, 720, 800.0000000000001)"></rect><rect width="36.36363636363637" height="6.684210526315789" x="781.8181818181819" y="796.6578947368422" stroke="none" fill="#e55e37" rx="3.3421052631578947" transform="rotate(45, 800, 800.0000000000001)"></rect><rect width="6.684210526315789" height="36.36363636363637" x="796.6578947368421" y="781.818181818182" stroke="none" fill="#e55e37" rx="3.3421052631578947" transform="rotate(45, 800, 800.0000000000001)"></rect></g></svg>